<?xml version="1.0" standalone="no"?>
<!DOCTYPE svg PUBLIC "-//W3C//DTD SVG 20010904//EN"
 "http://www.w3.org/TR/2001/REC-SVG-20010904/DTD/svg10.dtd">
<svg version="1.0" xmlns="http://www.w3.org/2000/svg"
 width="300.000000pt" height="142.000000pt" viewBox="0 0 300.000000 142.000000"
 preserveAspectRatio="xMidYMid meet">
<g transform="translate(0.000000,142.000000) scale(0.100000,-0.100000)" stroke="none">
	<path fill="#484848" d="M652 1345 c-107 -47 -280 -191 -368 -309 -57 -76 -127 -220 -150
	-311 -25 -96 -25 -279 0 -360 37 -123 110 -221 197 -266 297 -151 792 86 986
	472 162 325 103 708 -121 774 -224 67 -491 -91 -630 -372 -40 -82 -42 -93 -10
	-93 15 0 46 11 69 25 35 20 51 41 95 125 59 112 121 189 174 214 76 36 195 7
	263 -65 18 -19 44 -61 59 -94 24 -52 29 -76 32 -177 7 -180 -35 -331 -133
	-478 -223 -335 -638 -372 -789 -70 -47 94 -59 163 -54 290 11 252 141 470 368
	620 90 59 113 90 68 90 -13 -1 -38 -7 -56 -15z"/>
	<path fill="#f44336" d="M2850 839 c-14 -12 -52 -35 -85 -52 -52 -27 -71 -31 -140 -31 -69 -1
	-96 5 -200 42 -66 24 -148 46 -183 49 -82 8 -173 -17 -252 -68 l-60 -39 0 -96
	0 -96 31 27 c18 14 59 40 93 58 53 27 71 31 141 31 69 1 96 -5 200 -42 66 -24
	148 -46 183 -49 82 -8 173 17 252 68 l60 39 0 90 c0 49 -3 90 -7 90 -5 -1 -19
	-10 -33 -21z"/>
</g>
</svg>
