<?xml version="1.0" encoding="iso-8859-1"?>
<!DOCTYPE svg PUBLIC "-//W3C//DTD SVG 1.1//EN" "http://www.w3.org/Graphics/SVG/1.1/DTD/svg11.dtd">
<svg version="1.1" id="Capa_1" xmlns="http://www.w3.org/2000/svg" xmlns:xlink="http://www.w3.org/1999/xlink" x="0px" y="0px"
	 width="956.815px" height="956.815px" viewBox="0 0 956.815 956.815" style="enable-background:new 0 0 956.815 956.815;"
	 xml:space="preserve">
<g>
	<path fill="#484848" d="M137.621,162.622H20c-11.046,0-20,8.954-20,20v72.919c0,11.046,8.954,20,20,20h117.622L137.621,162.622L137.621,162.622z"/>
	<path fill="#484848" d="M774.193,956.815c11.046,0,20-8.954,20-20V819.193H681.274v117.621c0,11.046,8.954,20,20,20L774.193,956.815
		L774.193,956.815z"/>
	<path fill="#484848" d="M794.193,656.275V182.622c0-11.046-8.954-20-20-20H300.54v112.919h380.734v380.734H794.193z"/>
	<path fill="#f44336" d="M936.814,681.275H794.193H681.274H275.54V275.541V162.622V20c0-11.046-8.954-20-20-20h-72.918c-11.046,0-20,8.954-20,20
		v142.622v112.919v498.653c0,11.046,8.954,20,20,20h498.653h112.918h142.622c11.045,0,20-8.954,20-20v-72.918
		C956.814,690.229,947.86,681.275,936.814,681.275z"/>
</g>
</svg>
