<?xml version="1.0" ?><svg id="Layer_1" style="enable-background:new 0 0 512 512;" version="1.1" viewBox="0 0 512 512" xml:space="preserve" xmlns="http://www.w3.org/2000/svg" xmlns:xlink="http://www.w3.org/1999/xlink">
<g>
	<g>
		<polygon id="back" fill="#484848" points="330.7,6 87.9,6 87.9,506 449.2,506 449.2,122.8   "/>
		<polygon id="corner" fill="#f44336" points="330.7,6 449.2,122.8 330.7,122.8   "/>
		<rect id="csvback" fill="#f44336" height="156.1" width="329" x="62.8" y="298.8"/>
		<polygon id="scvbackcorner" fill="#c41306" points="62.8,454.9 87.9,476.1 87.9,454.9   "/>
	</g>
	<g>
		<path id="c" fill="#ffffff" d="M149,400.1c3.1,0,5.4-0.8,6.9-2.5c1.5-1.7,2.3-4.1,2.3-7.2h20.6l0.1,0.4    c0.2,7.9-2.5,14.3-8.2,19.3c-5.6,5-12.9,7.4-21.7,7.4c-11,0-19.5-3.4-25.4-10.2c-5.9-6.8-8.9-15.6-8.9-26.5v-1.5    c0-10.9,3-19.7,8.9-26.5c5.9-6.8,14.4-10.2,25.3-10.2c9.2,0,16.5,2.5,22,7.6c5.5,5.1,8.2,12.1,8,20.9l-0.1,0.4h-20.6    c0-3.4-0.8-6.2-2.3-8.4c-1.6-2.2-3.9-3.2-6.9-3.2c-4.4,0-7.4,1.7-9.1,5.2c-1.7,3.5-2.6,8.2-2.6,14.1v1.5c0,6.1,0.9,10.8,2.6,14.2    C141.4,398.4,144.5,400.1,149,400.1z"/>
		<path id="s" fill="#ffffff" d="M235.3,395.8c0-1.8-1-3.4-3-4.8c-2-1.4-5.7-2.7-11.1-3.8c-8.4-1.6-14.8-4.2-19-7.6    c-4.3-3.4-6.4-8.2-6.4-14.3c0-6.4,2.7-11.8,8-16.2c5.3-4.4,12.6-6.6,21.7-6.6c9.6,0,17.3,2.1,23,6.4c5.7,4.3,8.4,9.9,8.1,16.7    l-0.1,0.4h-21.9c0-2.8-0.7-5-2.1-6.5c-1.4-1.5-3.8-2.2-7-2.2c-2.4,0-4.3,0.6-5.9,1.9c-1.6,1.3-2.4,2.9-2.4,4.9    c0,1.9,0.9,3.5,2.8,4.9c1.8,1.3,5.6,2.5,11.2,3.6c8.9,1.7,15.4,4.3,19.6,7.8c4.2,3.5,6.3,8.3,6.3,14.7c0,6.5-2.9,11.9-8.6,16.1    c-5.8,4.2-13.4,6.3-22.9,6.3c-9.8,0-17.6-2.5-23.3-7.5c-5.7-5-8.4-10.6-8.2-16.7l0.1-0.4h20.4c0.1,3.4,1.1,5.9,3.1,7.4    c2,1.5,4.8,2.3,8.4,2.3c3,0,5.3-0.6,6.9-1.8C234.5,399.6,235.3,398,235.3,395.8z"/>
		<path id="v" fill="#ffffff" d="M304.2,386.3l1.3,7.7l0.4,0.1l1.5-7.7l9.6-42.5h23.7l-23.5,72.3h-22.9l-23.5-72.3h23.8    L304.2,386.3z"/>
	</g>
</g>
</svg>
