<?xml version="1.0" encoding="iso-8859-1"?>
<!-- Generator: Adobe Illustrator 19.0.0, SVG Export Plug-In . SVG Version: 6.00 Build 0)  -->
<svg version="1.1" id="Capa_1" xmlns="http://www.w3.org/2000/svg" xmlns:xlink="http://www.w3.org/1999/xlink" x="0px" y="0px"
	 viewBox="0 0 512 512" style="enable-background:new 0 0 512 512;" xml:space="preserve">
<!--g>
	<g>
		<path d="M416.667,0H95.333C42.766,0,0,42.767,0,95.334v321.333C0,469.234,42.766,512,95.333,512h321.334
			C469.234,512,512,469.234,512,416.667V95.334C512,42.767,469.234,0,416.667,0z M482,416.667C482,452.692,452.692,482,416.667,482
			H95.333C59.308,482,30,452.692,30,416.667V95.334C30,59.309,59.308,30,95.333,30h321.334C452.692,30,482,59.309,482,95.334
			V416.667z"/>
	</g>
</g-->
<g>
	<path fill="#504040" d="M400.601,96.4H207.8c-8.284,0-15,6.716-15,15v81.4h-81.4c-8.284,0-15,6.716-15,15v192.801c0,8.284,6.716,15,15,15h192.8
		c8.284,0,15-6.716,15-15v-81.4h81.4c8.284,0,15-6.716,15-15V111.4C415.601,103.116,408.885,96.4,400.601,96.4z M289.2,385.601
		H126.4V222.8h162.8V385.601z M385.602,289.2h-0.001h-66.4v-81.4c0-8.284-6.716-15-15-15h-81.4v-66.4h162.801V289.2z"/>
</g>
</svg>
