<?xml version="1.0" encoding="iso-8859-1"?>
<!DOCTYPE svg PUBLIC "-//W3C//DTD SVG 1.1//EN" "http://www.w3.org/Graphics/SVG/1.1/DTD/svg11.dtd">
<svg version="1.1" id="Capa_1" xmlns="http://www.w3.org/2000/svg" xmlns:xlink="http://www.w3.org/1999/xlink" x="0px" y="0px"
	 viewBox="0 0 395.304 395.304" style="enable-background:new 0 0 395.304 395.304;" xml:space="preserve">
<g>
	<polygon fill="#484848" points="392.152,341.5 392.152,326.5 65.652,326.5 65.652,0 50.652,0 50.652,326.5 21.152,326.5 21.152,341.5 
		50.652,341.5 50.652,371 65.652,371 65.652,341.5 	"/>
	<path fill="#f44336" d="M229.731,307.947c37.193,0,71.676-30.068,97.096-84.667c24.571-52.773,38.103-122.773,38.103-197.105h-15
		c0,72.19-13.034,139.941-36.701,190.774c-22.818,49.008-52.472,75.998-83.498,75.998s-60.68-26.99-83.498-75.998
		c-23.667-50.833-36.701-118.584-36.701-190.774h-15c0,74.332,13.532,144.332,38.103,197.105
		C158.056,277.879,192.539,307.947,229.731,307.947z"/>
	<polygon fill="#f44336" points="393.455,365.304 382.849,354.696 373.152,364.393 363.455,354.696 352.849,365.304 362.545,375 352.849,384.696 
		363.455,395.304 373.152,385.607 382.849,395.304 393.455,384.696 383.759,375 	"/>
	<polygon fill="#f44336" points="31.849,11.696 22.152,21.393 12.455,11.696 1.849,22.304 11.545,32 1.849,41.696 12.455,52.304 42.455,22.304 	"/>
</g>
</svg>
